<svg version="1.1" id="Capa_1" xmlns="http://www.w3.org/2000/svg" xmlns:xlink="http://www.w3.org/1999/xlink" x="0px" y="0px" viewBox="0 0 512 512" style="enable-background:new 0 0 512 512;" xml:space="preserve" width="512" height="512" class=""><g><circle style="fill:#556080" cx="256" cy="261.706" r="250.294" data-original="#647892" class="" data-old_color="#006AF4"></circle><path style="fill:#EFEFEF;" d="M205.458,0.002C142.052,0.366,91.222,52.763,91.222,116.17v92.943h41.873v-93.276  c0-40.208,32.105-73.571,72.312-73.961c40.6-0.394,73.755,32.519,73.755,73.03v32.62c0,1.776,1.439,3.215,3.215,3.215h8.316  c1.401,0,2.203,1.6,1.363,2.722l-9.99,13.361c-1.198,1.603-0.055,3.885,1.946,3.885h33.652c1.861,0,3.369-1.508,3.369-3.369v-52.432  C321.035,51.323,269.124-0.363,205.458,0.002z" data-original="#EFEFEF" class=""></path><path style="fill:#DDDDDD;" d="M227.124,1.931c-7.022-1.302-14.263-1.972-21.666-1.929C142.052,0.366,91.222,52.763,91.222,116.17  v92.943h41.873v-93.276C133.095,61.628,171.919,12.242,227.124,1.931z" data-original="#DDDDDD" class=""></path><path style="fill:#26B999" d="M333.481,201.858H78.777c-14.83,0-26.852,12.022-26.852,26.852c0,5.134,0,115.523,0,177.947  c19.663,27.633,44.801,51.096,73.826,68.819c69.258,0,191.724,0,207.729,0c14.829,0,26.851-12.022,26.851-26.852  c0-5.585,0-212.852,0-219.914C360.332,213.88,348.31,201.858,333.481,201.858z" data-original="#FC5B6F" class="" data-old_color="#FC5B6F"></path><g>
	<path style="fill:#31A08C" d="M111.983,454.86c0-5.902,0-224.924,0-232.386c0-8.123,3.419-15.443,8.89-20.616H78.777   c-14.83,0-26.852,12.022-26.852,26.852c0,5.134,0,115.523,0,177.947c17.377,24.42,39.036,45.577,63.869,62.4   C113.375,464.881,111.983,460.034,111.983,454.86z" data-original="#F74352" class="active-path" data-old_color="#33A792"></path>
	<path style="fill:#31A08C" d="M239.992,294.165c0-19.436-16.373-35.047-36.079-33.794c-31.89,2.029-43.607,43.862-16.601,61.945   c1.448,0.97,2.341,2.576,2.341,4.318v20.75c0,8.457,6.196,15.876,14.601,16.803c9.938,1.096,18.347-6.655,18.347-16.371V326.57   c0-1.71,0.883-3.279,2.304-4.229C234.001,316.27,239.992,305.92,239.992,294.165z" data-original="#F74352" class="active-path" data-old_color="#33A792"></path>
</g><path style="fill:#1C9A7E" d="M220.292,322.317c-20.9-13.995-19.927-45.197,2.36-57.713c-5.485-3.073-11.912-4.666-18.739-4.231  c-31.889,2.029-43.608,43.862-16.6,61.946c1.448,0.97,2.341,2.576,2.341,4.318v20.75c0,8.457,6.195,15.876,14.601,16.803  c9.938,1.096,18.347-6.655,18.347-16.371v-21.248c0-0.071,0.01-0.14,0.013-0.211C222.527,324.724,221.663,323.236,220.292,322.317z" data-original="#E8364C" class="" data-old_color="#20A487"></path><path style="fill:#FAC149;" d="M479.569,310.89c-0.724-46.694-38.218-85.257-84.876-87.213  c-38.842-1.628-72.424,21.741-86.034,55.34c-0.923,2.279-3.125,3.777-5.583,3.777h-40.1c-1.459,0-2.87,0.518-3.983,1.462  l-10.422,8.844c-1.266,1.074-2.873,1.664-4.533,1.664H172.28c0.2,11.49,6.115,21.582,15.033,27.553  c1.449,0.97,2.341,2.576,2.341,4.318v3.195h108.703c3.149,0,5.951,2.09,6.754,5.136c10.018,38.004,44.618,66.03,85.769,66.03  C440.336,400.997,480.338,360.522,479.569,310.89z M443.84,326.902c0,14.345-11.629,25.975-25.975,25.975  s-25.975-11.63-25.975-25.975v-29.211c0-14.345,11.629-25.975,25.975-25.975s25.975,11.63,25.975,25.975V326.902z" data-original="#FAC149" class=""></path><path style="fill:#EFEFEF;" d="M440.903,430.397H199.73c-6.58,0-11.965,5.384-11.965,11.965v57.672c0,0.904,0.11,1.782,0.302,2.63  c21.603,6.078,44.386,9.335,67.932,9.335C329.241,512,395.13,480.538,440.903,430.397z" data-original="#EFEFEF" class=""></path><path style="fill:#DDDDDD;" d="M236.885,442.362c0-6.58,5.384-11.965,11.965-11.965h-49.121c-6.58,0-11.965,5.384-11.965,11.965  v57.672c0,0.904,0.11,1.782,0.302,2.63c15.701,4.417,32.029,7.337,48.818,8.606v-68.908H236.885z" data-original="#DDDDDD" class=""></path><g>
	<path style="fill:#BAB6B3;" d="M250.06,458.024c-3.035-3.037-7.958-3.036-10.994-0.001l-2.181,2.181l-2.181-2.181   c-3.036-3.035-7.958-3.036-10.994,0.001c-3.036,3.036-3.036,7.957,0,10.994l2.181,2.181l-2.181,2.181   c-3.036,3.037-3.036,7.958,0,10.994c1.517,1.518,3.507,2.277,5.496,2.277s3.979-0.759,5.496-2.276l2.181-2.181l2.181,2.181   c1.517,1.517,3.507,2.276,5.496,2.276c1.99,0,3.979-0.759,5.496-2.277c3.036-3.036,3.036-7.957,0-10.994l-2.181-2.181l2.181-2.181   C253.096,465.981,253.096,461.06,250.06,458.024z" data-original="#BAB6B3" class=""></path>
	<path style="fill:#BAB6B3;" d="M297.039,458.024c-3.035-3.037-7.958-3.036-10.994-0.001l-2.181,2.181l-2.181-2.181   c-3.036-3.035-7.958-3.036-10.994,0.001c-3.036,3.036-3.036,7.957,0,10.994l2.181,2.181l-2.181,2.181   c-3.036,3.037-3.036,7.958,0,10.994c1.517,1.518,3.507,2.277,5.496,2.277c1.989,0,3.979-0.759,5.496-2.276l2.181-2.181l2.181,2.181   c1.517,1.517,3.507,2.276,5.496,2.276c1.99,0,3.979-0.759,5.496-2.277c3.036-3.036,3.036-7.957,0-10.994l-2.181-2.181l2.181-2.181   C300.076,465.981,300.076,461.06,297.039,458.024z" data-original="#BAB6B3" class=""></path>
	<path style="fill:#BAB6B3;" d="M344.019,458.023c-3.036-3.035-7.958-3.035-10.994,0l-2.181,2.181l-2.181-2.181   c-3.036-3.035-7.958-3.035-10.994,0c-3.036,3.037-3.036,7.958,0,10.995l2.181,2.181l-2.181,2.181   c-3.036,3.037-3.036,7.958,0,10.995c1.517,1.517,3.507,2.276,5.496,2.276c1.99,0,3.979-0.759,5.496-2.276l2.181-2.181l2.181,2.181   c1.517,1.517,3.507,2.276,5.496,2.276s3.979-0.759,5.496-2.276c3.036-3.037,3.036-7.958,0-10.995l-2.181-2.181l2.181-2.181   C347.055,465.981,347.055,461.06,344.019,458.023z" data-original="#BAB6B3" class=""></path>
	<path style="fill:#BAB6B3;" d="M380.005,458.023l-2.181,2.181l-2.181-2.181c-3.035-3.035-7.958-3.036-10.994,0.001   c-3.036,3.036-3.036,7.957,0,10.994l2.181,2.181l-2.181,2.181c-3.036,3.037-3.036,7.958,0,10.994   c0.729,0.729,1.567,1.277,2.459,1.657c8.038-3.989,15.836-8.385,23.356-13.184l-1.647-1.647l2.181-2.181   c3.036-3.037,3.036-7.958,0-10.994C387.963,454.988,383.041,454.989,380.005,458.023z" data-original="#BAB6B3" class=""></path>
</g><path style="fill:#F8A748" d="M419.02,389.377c-49.779,0-90.132-40.353-90.132-90.132c0-29.161,13.854-55.084,35.334-71.558  c-25.288,7.965-45.686,26.948-55.562,51.329c-0.923,2.279-3.125,3.777-5.583,3.777h-40.101c-1.459,0-2.87,0.518-3.983,1.462  l-10.422,8.844c-1.266,1.074-2.873,1.664-4.533,1.664h-71.758c0.2,11.49,6.115,21.582,15.033,27.553  c1.448,0.97,2.341,2.576,2.341,4.318v3.195h108.703c3.149,0,5.952,2.09,6.754,5.136c10.019,38.004,44.618,66.03,85.769,66.03  c17.401,0,33.627-5.016,47.323-13.672C432.021,388.665,425.604,389.377,419.02,389.377z" data-original="#F8A748" class=""></path></g> </svg>